<svg xmlns="http://www.w3.org/2000/svg" viewBox="0 0 178.54 101.59">
    <defs>
        <style>
        .cls-1 {
            fill: #df0427;
            fill-rule: evenodd;
        }

        .cls-2 {
            fill: #fff;
        }
        </style>
    </defs>
    <title>Asset 1</title>
    <g id="Layer_2" data-name="Layer 2">
        <g id="Layer_1-2" data-name="Layer 1">
            <path class="cls-1" d="M177.86,22a39.93,39.93,0,0,0-2.51-9.25,19.82,19.82,0,0,0-4.09-6.61c-1.33-1.32-2.68-2.62-4.06-3.88A11.15,11.15,0,0,0,164,0h-.24c-.06.21-.21.45-.16.64a6.44,6.44,0,0,0,.53,1.42c.61,1.14,1.29,2.25,1.91,3.38a9.33,9.33,0,0,1-.13,10,18.4,18.4,0,0,1-4.79,4.91,55,55,0,0,1-8.27,4.82,54.85,54.85,0,0,1-9,3.34,80.91,80.91,0,0,1-11.4,2.72c-2.39.36-4.77.79-7.15,1.17s-4.67.71-7,1.07l-6.7,1-6.82,1-7,1-6.51.92-6.51.91-6.55.93-7.66,1.07L63,41.45l-7.66,1.07-7.66,1.09-8.21,1.15c-2.75.39-5.5.82-8.25,1.17a51.55,51.55,0,0,0-8.53,1.79A45.15,45.15,0,0,0,9.51,53.9,21,21,0,0,0,3,61,22.89,22.89,0,0,0,.23,68.91c-.09.62-.15,1.24-.23,1.87v2.09c0,.14.06.29.08.43.12,1,.2,1.91.37,2.86a35.31,35.31,0,0,0,2.67,8,38,38,0,0,0,13,15.93c.72.51,1.47,1,2.27,1.48.06-.58.11-1.07.15-1.57a6.51,6.51,0,0,1,3.16-5.46A12.8,12.8,0,0,1,25,93.06c2.43-.63,4.9-1.1,7.36-1.55s5.09-.85,7.63-1.26c2.36-.37,4.73-.72,7.09-1.08l6.3-.93,6.42-.92,6.58-.93,6.08-.84,6.08-.83,6.19-.85L91.53,83,98.36,82l7-1,6.82-1,7.25-1.08,7.13-1.09c2.51-.39,5-.76,7.52-1.16s5.2-.82,7.79-1.25c2.82-.47,5.65-.87,8.44-1.47a32.74,32.74,0,0,0,16.17-8.6,37.46,37.46,0,0,0,9.66-16.31,57.73,57.73,0,0,0,2.32-15A63.33,63.33,0,0,0,177.86,22Z" />
            <path class="cls-2" d="M43.58,77.57q-3.52-5.34-7-10.69a.58.58,0,0,1,0-.49q2.42-4.66,4.88-9.3a.72.72,0,0,1,.46-.29c.54-.11,1.1-.17,1.64-.25V51.43l-.7.08c-2.41.34-4.81.69-7.23,1-.36,0-.43.17-.42.5,0,1.53,0,3.05,0,4.58a1.29,1.29,0,0,1-.13.57q-2.35,4.4-4.73,8.79a2.39,2.39,0,0,1-.16.21s0-.06,0-.07q0-4,0-8c0-.22.1-.3.3-.34.39-.09.77-.22,1.16-.29s.35-.19.35-.46c0-1.1,0-2.19,0-3.29V52.91l-12.6,1.9v5.45l2.24-.39V81.28l-2.05.37v5.57l12.29-2V79.72l-1.71.17v-7c1.4,2.11,2.73,4.22,4,6.35a.77.77,0,0,1,.07.38c0,.64,0,1.29,0,1.93,0,1.12,0,2.25,0,3.39L45,83.11V77.66c-.32,0-.63,0-.92.11A.38.38,0,0,1,43.58,77.57Z" />
            <path class="cls-2" d="M134.87,63.7q-3.57-5.36-7.1-10.75a.5.5,0,0,1,0-.42q2.43-4.68,4.89-9.34a.66.66,0,0,1,.42-.28c.56-.11,1.13-.17,1.69-.25V37.51c-2.64.37-5.24.76-7.83,1.09-.47.06-.55.22-.54.64,0,1.47,0,2.94,0,4.42a1.39,1.39,0,0,1-.14.61q-2.35,4.38-4.71,8.75c0,.08-.11.15-.22.3,0-.35,0-.6,0-.85,0-2.4,0-4.79,0-7.19,0-.3.09-.43.39-.47s.7-.2,1-.26.38-.18.38-.48c0-1.34,0-2.68,0-4V39l-12.6,1.9v5.45l2.23-.38V67.38l-2,.37v5.58l12.3-2V65.83l-1.71.17V59.05c1.39,2.1,2.71,4.2,4,6.31a.84.84,0,0,1,.09.42c0,1,0,1.9,0,2.85s0,1.63,0,2.46l10.81-1.88V63.76a9.07,9.07,0,0,1-.93.1A.55.55,0,0,1,134.87,63.7Z" />
            <path class="cls-2" d="M159.13,41.09a8.91,8.91,0,0,0-5.42-5.55,11.37,11.37,0,0,0-5.7-.44,11.18,11.18,0,0,0-6.7,3.39,19.23,19.23,0,0,0-4.91,11.8,33.42,33.42,0,0,0,.07,6.89,18.92,18.92,0,0,0,1.58,6,8.47,8.47,0,0,0,5,4.71,10.79,10.79,0,0,0,5,.39,13.1,13.1,0,0,0,7.71-3.76,13.93,13.93,0,0,0,2.91-4.89,30,30,0,0,0,1.78-10.78c0-.41,0-1.11-.08-1.8A19.86,19.86,0,0,0,159.13,41.09Zm-8,10.88H151c0,2.07,0,4.15,0,6.22a4.77,4.77,0,0,1-1.42,3.47,2.17,2.17,0,0,1-3.2-.2,4.63,4.63,0,0,1-1-3.06q0-6.09.06-12.17a9,9,0,0,1,.69-3.52,2.62,2.62,0,0,1,3-1.65,1.65,1.65,0,0,1,1.48,1.24,13,13,0,0,1,.55,3.8C151.19,48.06,151.18,50,151.18,52Z" />
            <path class="cls-2" d="M67.88,54.68a8.93,8.93,0,0,0-5.41-5.56,11.39,11.39,0,0,0-5.74-.44,11.16,11.16,0,0,0-6.7,3.4,19.29,19.29,0,0,0-4.9,11.81,33.76,33.76,0,0,0,.07,6.89,18.76,18.76,0,0,0,1.61,6,8.44,8.44,0,0,0,5,4.67,10.8,10.8,0,0,0,5,.38,13.17,13.17,0,0,0,7.59-3.65,13.81,13.81,0,0,0,3-5,29.93,29.93,0,0,0,1.77-10.74c0-.41,0-1.1-.08-1.8A19.87,19.87,0,0,0,67.88,54.68Zm-8,10.84h-.15c0,2.07,0,4.15,0,6.22a4.79,4.79,0,0,1-1.41,3.48,2.17,2.17,0,0,1-3.23-.2,4.67,4.67,0,0,1-1-3.06q0-6.07.06-12.13a9,9,0,0,1,.7-3.55,2.63,2.63,0,0,1,3-1.63,1.65,1.65,0,0,1,1.45,1.22,12.76,12.76,0,0,1,.55,3.79C59.93,61.62,59.91,63.57,59.91,65.52Z" />
            <path class="cls-2" d="M87.16,44.62c-2,.16-4.05.5-6.08.8-2.61.38-5.2.78-7.8,1.18-.75.11-1.5.26-2.22.38v5.58l2.06-.37V73.34l-1.93.42v5.37c.78-.12,1.53-.23,2.28-.35,3.15-.52,6.29-1.06,9.45-1.57.32-.05.39-.17.39-.46,0-1.55,0-3.1,0-4.66a1.81,1.81,0,0,0,0-.27l-1.91.23c0-1.75,0-3.44,0-5.14,0-.08.14-.21.23-.23,1.21-.2,2.43-.37,3.64-.58a26.57,26.57,0,0,0,3.37-.66,7,7,0,0,0,5-5,25.16,25.16,0,0,0,1-6.23,13.51,13.51,0,0,0-.63-5C92.76,45.83,90.34,44.37,87.16,44.62Zm-1.4,13.76a3.38,3.38,0,0,1-3.07,2.83c-.4,0-.8.07-1.24.1,0-.72,0-1.36,0-2,0-2.66,0-5.32.06-8,0-.3.05-.47.39-.5.51,0,1-.18,1.5-.22a2,2,0,0,1,2.25,1.5,10.34,10.34,0,0,1,.4,2.72A21.52,21.52,0,0,1,85.75,58.38Z" />
            <path class="cls-2" d="M106.31,41.68,96.2,43.25v5.54l2-.27v.38q-.06,7.57-.13,15.14c0,1.82,0,3.64-.05,5.46,0,.21,0,.38-.3.4s-.85.12-1.28.14-.35.12-.34.39c0,1,0,2.06,0,3.09,0,.55,0,1.09,0,1.68l12.34-1.76v-5l-2.41.2C106.16,59.62,106.24,50.67,106.31,41.68Z" />
            <path class="cls-2" d="M162.43,35.37a.7.7,0,0,0,.09-.31.65.65,0,0,0,0-.23.7.7,0,0,0-.1-.19.55.55,0,0,0-.2-.16.93.93,0,0,0-.34-.06l-1,0-.05,2.21h.44l0-.87h.44a.36.36,0,0,1,.26.08.43.43,0,0,1,.06.28v.21a1,1,0,0,0,0,.19,1.19,1.19,0,0,0,0,.12h.5v-.05a.18.18,0,0,1-.08-.13,1.16,1.16,0,0,1,0-.21V36.1a.79.79,0,0,0-.05-.35.38.38,0,0,0-.21-.18A.45.45,0,0,0,162.43,35.37Zm-.5,0a.52.52,0,0,1-.22,0h-.48l0-.59h.5a.45.45,0,0,1,.21,0,.28.28,0,0,1,.12.27A.25.25,0,0,1,161.93,35.36Z" />
            <path class="cls-2" d="M161.66,33.48a2,2,0,1,0,2,2.09A2,2,0,0,0,161.66,33.48Zm-.09,3.69a1.65,1.65,0,1,1,1.69-1.61A1.66,1.66,0,0,1,161.57,37.17Z" />
        </g>
    </g>
</svg>